HIERARCHY
ROOT hip
{
	OFFSET 0.000000 0.000000 0.000000 
	CHANNELS 6 Xposition Yposition Zposition Xrotation Zrotation Yrotation
	JOINT abdomen
	{
		OFFSET 0.000000 3.402643 0.000000 
		CHANNELS 3 Xrotation Zrotation Yrotation
		JOINT chest
		{
			OFFSET 0.000000 8.438565 -0.680529 
			CHANNELS 3 Xrotation Zrotation Yrotation
			JOINT neck
			{
				OFFSET 0.000000 10.207942 -0.272212 
				CHANNELS 3 Xrotation Zrotation Yrotation
				JOINT head
				{
					OFFSET 0.000000 3.130431 0.000000 
					CHANNELS 3 Xrotation Zrotation Yrotation
					End Site
					{
						OFFSET 0.000000 3.130435 0.000000 
					}
				}
			}
			JOINT lCollar
			{
				OFFSET 3.470700 6.669187 -0.816635 
				CHANNELS 3 Yrotation Zrotation Xrotation
				JOINT lShldr
				{
					OFFSET 3.198488 0.000000 0.000000 
					CHANNELS 3 Zrotation Yrotation Xrotation
					JOINT lForeArm
					{
						OFFSET 10.139888 0.000000 0.000000 
						CHANNELS 3 Yrotation Zrotation Xrotation
						JOINT lHand
						{
							OFFSET 8.370511 0.000000 0.000000 
							CHANNELS 3 Zrotation Yrotation Xrotation
							End Site
							{
								OFFSET 4.083176 0.000000 0.000000 
							}
						}
					}
				}
			}
			JOINT rCollar
			{
				OFFSET -3.470700 6.669187 -0.816635 
				CHANNELS 3 Yrotation Zrotation Xrotation
				JOINT rShldr
				{
					OFFSET -3.198488 0.000000 0.000000 
					CHANNELS 3 Zrotation Yrotation Xrotation
					JOINT rForeArm
					{
						OFFSET -10.139888 0.000000 0.000000 
						CHANNELS 3 Yrotation Zrotation Xrotation
						JOINT rHand
						{
							OFFSET -8.370511 0.000000 0.000000 
							CHANNELS 3 Zrotation Yrotation Xrotation
							End Site
							{
								OFFSET -4.083176 0.000000 0.000000 
							}
						}
					}
				}
			}
		}
	}
	JOINT lThigh
	{
		OFFSET 5.308129 -1.633274 1.361059 
		CHANNELS 3 Xrotation Zrotation Yrotation
		JOINT lShin
		{
			OFFSET -2.041588 -20.007561 0.000000 
			CHANNELS 3 Xrotation Zrotation Yrotation
			JOINT lFoot
			{
				OFFSET 0.000000 -19.190928 -1.224953 
				CHANNELS 3 Xrotation Yrotation Zrotation
				End Site
				{
					OFFSET 0.000000 -2.449906 4.627600 
				}
			}
		}
	}
	JOINT rThigh
	{
		OFFSET -5.308129 -1.633274 1.361059 
		CHANNELS 3 Xrotation Zrotation Yrotation
		JOINT rShin
		{
			OFFSET 2.041588 -20.007561 0.000000 
			CHANNELS 3 Xrotation Zrotation Yrotation
			JOINT rFoot
			{
				OFFSET 0.000000 -19.190928 -1.224953 
				CHANNELS 3 Xrotation Yrotation Zrotation
				End Site
				{
					OFFSET 0.000000 -2.449906 4.627600 
				}
			}
		}
	}
}
MOTION
Frames: 16
Frame Time: 0.011111
-65.731552 52.855717 34.610916 178.963531 177.103790 -0.257421 32.811966 -1.826574 3.484166 -22.335701 3.850622 1.511645 -8.158564 1.108461 3.709515 28.048183 -14.062560 1.587721 2.971642 -4.490881 1.927035 -34.112873 -34.616104 -20.674099 -66.567017 9.416649 15.421520 8.524705 12.647240 -24.007214 -4.704987 0.510038 2.448925 66.728882 20.015503 -17.265005 53.299606 -8.386683 9.509265 -8.534408 -12.637552 42.132671 0.994883 8.072868 7.902668 21.885887 -5.714221 -3.761275 -21.364185 -3.345531 -3.901733 -13.003165 -14.125243 -3.046076 40.208435 4.644545 6.074958 -32.994255 -12.970251 -5.826519 
-65.849716 52.870171 34.526066 178.650726 177.185059 0.070561 32.408028 -2.234527 3.968586 -22.257599 3.877657 1.319848 -13.425048 -3.432055 4.338659 35.153255 -7.122432 2.535852 2.971642 -4.490881 1.927035 -33.942142 -34.938389 -21.134798 -66.917633 9.401820 15.586001 8.524705 12.647240 -24.075573 -4.704987 0.510038 2.448925 67.778008 20.621853 -16.675535 52.290020 -8.194560 9.091167 -8.534408 -12.637552 42.493999 0.868587 7.831576 7.933283 21.671625 -5.724088 -3.733893 -21.182529 -3.691719 -4.048387 -14.380827 -13.990125 -1.880636 41.572323 4.521410 6.257363 -30.878132 -12.119131 -4.602661 
-65.952164 52.889656 34.383389 179.062576 177.407593 2.643940 33.042217 -1.740310 2.789135 -23.011326 4.087218 0.914077 -10.911386 -1.945890 3.355852 32.662514 -9.016533 0.716612 2.971642 -4.490881 1.927035 -34.092869 -35.026264 -20.577148 -67.745300 9.357732 15.988625 8.524705 12.647240 -22.610729 -4.704987 0.510038 2.448925 68.491722 20.724966 -17.978645 50.488331 -7.819206 8.358334 -8.534408 -12.637552 40.130714 1.287779 7.623965 7.375229 21.374178 -5.744589 -3.680899 -20.509512 -5.155197 -4.625948 -14.173428 -14.212072 -2.515282 42.914822 4.413894 6.401793 -29.053078 -11.582181 -3.715835 
-66.052101 52.892166 34.310791 179.229309 177.668274 3.445884 33.268574 -2.187631 2.881731 -22.482126 4.520634 0.986116 -12.278489 -2.758772 3.528446 33.798607 -8.188158 0.964017 2.971642 -4.490881 1.927035 -34.465385 -36.246868 -20.724813 -68.326393 9.314690 16.267630 8.524705 12.647240 -21.634167 -4.704987 0.510038 2.448925 68.897224 22.103895 -20.653738 48.601131 -7.373936 7.605666 -8.534408 -12.637552 39.183445 1.697937 7.281998 7.603028 20.959669 -5.743621 -3.634034 -20.148699 -5.944051 -4.927905 -15.008815 -14.325215 -1.893749 44.363487 4.296800 6.579116 -26.819302 -10.475554 -2.536200 
-66.152046 52.903797 34.203941 179.376251 177.677917 4.272202 33.948067 -1.989268 2.639940 -23.892317 3.790008 0.885772 -11.623363 -1.661155 3.302523 33.988304 -8.622027 0.618446 2.971642 -4.490881 1.927035 -33.881851 -35.455967 -19.545111 -69.394554 9.223887 16.789125 8.524705 12.647240 -17.737686 -4.704987 0.510038 2.448925 70.435524 21.588820 -19.235096 48.340816 -7.304309 7.493479 -8.534408 -12.637552 39.320171 2.115909 7.180002 7.366040 20.506655 -5.772067 -3.577743 -19.870506 -6.746542 -5.238395 -15.727743 -14.068022 -1.264029 45.743641 4.169665 6.715817 -26.063150 -8.729609 -1.627361 
-66.235016 52.894688 34.088287 179.533066 177.797043 5.470820 33.673157 -2.103643 2.340340 -22.923080 4.392834 0.822905 -10.818826 -1.664980 2.877136 32.635765 -8.781543 -0.035068 2.971642 -4.490881 1.927035 -34.385056 -36.549633 -21.030275 -69.498360 9.209595 16.830042 8.524705 12.647240 -20.686901 -4.704987 0.510038 2.448925 70.856949 22.829454 -20.222950 46.972580 -6.949991 6.968893 -8.534408 -12.637552 38.783066 2.448678 7.045363 7.095936 20.232792 -5.772039 -3.543341 -19.521389 -7.703410 -5.595646 -16.276480 -13.903841 -1.042656 47.140606 4.052589 6.874641 -25.076002 -7.501231 -0.884359 
-66.305725 52.880856 33.981121 179.534531 178.145966 6.997101 33.587856 -2.327768 1.757664 -22.501667 4.819026 0.713870 -11.300376 -2.454875 2.610283 33.141079 -7.382751 -0.395469 2.971642 -4.490881 1.927035 -34.677601 -37.311222 -21.655308 -69.615250 9.199791 16.891897 8.524705 12.647240 -22.024790 -4.704987 0.510038 2.448925 71.460732 23.904360 -21.268534 45.825977 -6.628681 6.526825 -8.534408 -12.637552 38.138535 2.450183 6.717865 6.751141 20.211948 -5.773940 -3.541945 -19.191923 -8.644733 -5.940392 -16.961109 -14.070792 -1.208588 48.488560 3.925740 7.003632 -24.239845 -5.991451 -0.113583 
-66.387749 52.873318 33.857300 -0.628233 1.880140 -171.582489 33.395954 -2.128584 1.412246 -22.207380 5.199602 0.601936 -11.878814 -2.835023 2.508650 33.741108 -6.848188 -0.591242 2.971642 -4.490881 1.927035 -35.363663 -37.955200 -21.106922 -70.508476 9.096302 17.338230 8.524705 12.647240 -20.149794 -4.704987 0.510038 2.448925 71.859146 24.696014 -22.281858 44.941700 -6.376899 6.189990 -8.534408 -12.637552 36.390488 2.312777 6.725781 6.536242 20.016815 -5.783524 -3.506382 -18.867781 -9.628991 -6.281764 -17.781075 -13.836255 -1.284832 49.726032 3.808516 7.153882 -23.467798 -4.535491 0.589782 
-66.463799 52.830261 33.739136 -0.926535 1.952803 -171.045715 33.663494 -2.006260 1.330156 -23.971451 4.654192 0.526856 -11.812970 -2.510106 2.544695 34.992085 -6.396533 -0.560727 2.971642 -4.490881 1.927035 -35.331829 -36.978672 -19.941914 -71.334938 8.982111 17.747328 8.524705 12.647240 -18.177137 -4.704987 0.510038 2.448925 72.965790 23.661201 -21.596626 44.540615 -6.254604 6.043231 -8.534408 -12.637552 35.804550 1.999028 6.741810 6.875853 20.141613 -5.773275 -3.516236 -18.951389 -10.466867 -6.625504 -19.097746 -13.337254 -0.555353 51.002548 3.681657 7.291699 -22.625565 -2.841423 1.360941 
-66.456894 52.819576 33.494633 0.028638 1.556271 -167.723801 34.304241 -1.648503 -0.324454 -23.178675 5.578522 0.039321 -11.409755 -2.623199 2.104898 34.502922 -6.054035 -1.289554 2.971642 -4.490881 1.927035 -36.210106 -37.827103 -19.172401 -72.053223 8.867800 18.107361 8.524705 12.647240 -15.823619 -4.704987 0.510038 2.448925 73.326408 24.473890 -21.440632 44.140148 -6.128923 5.889922 -8.534408 -12.637552 35.804550 2.984205 6.857288 6.335279 20.151445 -5.773365 -3.526851 -18.603628 -12.955035 -7.556520 -17.749830 -13.405128 -1.825899 52.053295 3.591719 7.367531 -22.667028 -1.361167 1.949413 
-66.632248 52.779034 33.525429 -0.960549 1.642889 -169.508377 33.293831 -2.710692 1.443317 -22.766268 5.457061 0.673395 -10.870931 -2.772831 1.610583 32.898235 -6.399351 -2.112291 2.971642 -4.490881 1.927035 -36.847992 -38.675514 -19.602201 -72.280647 8.826462 18.212770 8.524705 12.647240 -18.294325 -4.704987 0.510038 2.448925 73.824776 25.230387 -21.062624 43.966785 -6.082353 5.828905 -8.534408 -12.637552 35.560410 2.174426 6.281198 6.627606 20.189465 -5.783045 -3.531915 -19.282829 -11.540332 -7.088955 -21.030964 -12.936895 0.257509 53.180573 3.458898 7.514741 -20.648914 0.263835 2.739456 
-66.704842 52.810146 33.337494 -0.447768 1.761889 -167.200607 33.831589 -1.923820 0.707204 -22.687969 5.476929 0.366580 -12.826674 -4.084974 1.685416 36.247890 -3.483242 -1.936128 2.971642 -4.490881 1.927035 -37.294140 -39.231140 -19.317995 -72.489021 8.791963 18.324892 8.524705 12.647240 -19.231823 -4.704987 0.510038 2.448925 74.435509 25.540543 -19.992899 44.089813 -6.121947 5.879445 -8.534408 -12.637552 35.462749 2.663017 6.684268 6.154563 20.009409 -5.772337 -3.513401 -18.753469 -13.323938 -7.739007 -20.648727 -12.594371 -0.728549 54.044205 3.379051 7.567330 -20.288702 1.098122 3.066268 
-66.783417 52.822720 33.173763 -0.360936 1.874109 -166.446762 33.811768 -1.924244 0.749102 -22.638920 5.506424 0.379309 -10.708227 -1.400006 0.949794 32.837646 -7.258820 -3.312817 2.971642 -4.490881 1.927035 -37.668991 -39.523151 -18.815041 -72.769592 8.742252 18.466267 8.524705 12.647240 -19.339247 -4.704987 0.510038 2.448925 75.020561 25.607197 -18.600267 44.263447 -6.167563 5.932024 -8.534408 -12.637552 35.433453 2.782164 6.863042 6.347035 20.098194 -5.782289 -3.523875 -18.557388 -14.264772 -8.102975 -21.400087 -12.037884 -0.554120 54.965164 3.289434 7.657248 -19.652386 2.439008 3.610338 
-66.872665 52.800720 33.015366 -0.520498 1.607893 -165.638916 33.715385 -2.188588 0.348412 -22.629202 5.736996 0.308343 -7.178274 2.681375 0.280324 27.182896 -13.726940 -4.645535 2.971642 -4.490881 1.927035 -38.466572 -39.481709 -18.249563 -73.326660 8.632959 18.748684 8.524705 12.647240 -19.085339 -4.704987 0.510038 2.448925 75.317596 25.708651 -17.010498 44.304802 -6.182715 5.948014 -8.534408 -12.637552 35.462749 3.016458 6.552340 6.592303 19.739872 -5.792590 -3.473402 -18.038927 -15.329029 -8.412461 -22.386951 -12.008870 -0.455312 55.748703 3.203118 7.736359 -19.322258 4.056198 4.190945 
-66.967575 52.768353 32.885887 -0.905564 1.258903 -164.968979 33.522377 -2.607975 -0.001342 -22.580202 5.891632 0.284919 -6.930301 2.863488 0.104756 26.436668 -13.957683 -4.852919 2.971642 -4.490881 1.927035 -39.264103 -39.449574 -17.453302 -73.852242 8.525216 19.027321 8.524705 12.647240 -18.626356 -4.704987 0.510038 2.448925 75.601013 26.055346 -15.091337 44.571522 -6.263924 6.052266 -8.534408 -12.637552 35.911968 2.956632 6.051353 6.585968 19.546503 -5.793113 -3.446119 -17.618496 -16.164743 -8.664625 -23.782219 -12.145168 -0.171633 56.531651 3.124999 7.818604 -18.893650 5.991342 4.894406 
-67.042053 52.782177 32.695438 -0.757738 1.184496 -163.295288 33.752609 -2.351927 -0.635664 -22.619518 5.900178 0.084801 -11.715583 -3.891100 0.666258 34.399216 -2.799565 -3.336832 2.971642 -4.490881 1.927035 -39.717995 -39.379398 -16.039549 -74.229622 8.438018 19.220814 8.524705 12.647240 -17.640026 -4.704987 0.510038 2.448925 76.128479 26.007154 -12.475288 45.321922 -6.486080 6.329792 -8.534408 -12.637552 37.445171 3.208497 6.135793 6.166240 19.412064 -5.801016 -3.425188 -17.171482 -17.461533 -9.057613 -24.104860 -12.028294 -0.694675 57.148468 3.046786 7.877272 -18.647280 7.374385 5.400890 
